PathFileType	4	(X/Y/Z)	C:\Users\WrightLab\Desktop\Jo\P4V136.trc
DataRate	CameraRate	NumFrames	NumMarkers	Units	OrigDataRate	OrigDataStartFrame	OrigNumFrames
100.00	100.00	       13	19	mm	100.00	283	       565
Frame#	Time	Headset_Front			Headset_Back			Headset_Left			Headset_Right			Left_Shoulder			Right_Shoulder			Sternum			C7			Left Elbow			Right Elbow			Left Wrist			Right Wrist			Left ASIS			Right ASIS			S2			Left Knee			Right Knee			Left Ankle			Right Ankle			
		X1	Y1	Z1	X2	Y2	Z2	X3	Y3	Z3	X4	Y4	Z4	X5	Y5	Z5	X6	Y6	Z6	X7	Y7	Z7	X8	Y8	Z8	X9	Y9	Z9	X10	Y10	Z10	X11	Y11	Z11	X12	Y12	Z12	X13	Y13	Z13	X14	Y14	Z14	X15	Y15	Z15	X16	Y16	Z16	X17	Y17	Z17	X18	Y18	Z18	X19	Y19	Z19	

283	2.820	87.85043	1723.07251	860.87012							-47.32375	1735.93787	794.24121	140.36459	1547.85999	581.73230	-115.20633	1555.62610	744.62256	81.85642	1487.37122	750.36719				266.97040	1203.15674	495.21292	-229.42000	1209.23206	835.45349	324.21036	932.74316	638.31720	-129.16560	956.69611	973.77435	168.70354	1058.65466	615.06702	-77.97758	1052.90662	839.98370	-67.24957	1071.36670	578.53290	183.35262	568.89874	612.43811	-22.71738	606.29688	956.54291	112.17017	71.00409	585.31805	-117.68446	232.41127	629.46674	
284	2.830	92.02818	1723.42456	869.16974							-42.52881	1736.13574	801.16827	146.79103	1548.15295	589.68207	-109.95052	1556.05554	750.39221	86.92316	1487.52563	758.27368				277.74106	1204.37903	506.91098	-226.60172	1209.42419	838.08929	334.06995	934.50214	652.32275	-128.88876	956.05908	977.14990	174.37202	1058.68628	622.21893	-73.28783	1054.03101	846.16608	-61.36574	1072.02466	585.05359	184.01015	569.00372	615.64258	-13.39394	609.37408	966.29431	112.15166	70.96516	586.15521	-96.20625	223.72731	648.14380	
285	2.840	95.99233	1723.64661	877.44073							-38.41165	1736.18420	808.28302	154.96776	1548.57654	597.51544	-104.50282	1556.18823	756.18677	91.85712	1487.13147	766.10651				288.62949	1205.33069	518.97198	-223.81877	1209.40686	841.06683	343.15024	936.09314	666.29230	-129.34961	955.59552	979.93951	180.10020	1058.88403	630.06757	-68.03973	1054.46252	852.40735	-55.45803	1072.65125	591.40955	186.09583	569.24469	619.34448	-5.36430	613.14386	974.44324	112.05331	71.39928	586.17529	-74.75735	214.25415	668.51642	
286	2.850	99.03343	1723.87671	885.87610							-33.99981	1735.66589	815.30792	161.28848	1547.95874	610.19635	-99.91603	1556.00110	762.16357	96.26537	1487.05652	774.58246				299.01093	1205.82922	531.20477	-221.17079	1209.50989	843.91779	353.07852	938.42157	680.68689	-129.64671	954.25854	983.70569	185.28993	1058.92773	637.45490	-63.47127	1054.05066	857.65533	-49.90343	1073.29163	598.28986	188.57213	569.17810	622.07343	1.95889	616.49921	983.84668	112.33601	72.28893	585.95984	-54.45953	204.20648	688.15363	
287	2.860	103.05704	1723.97937	894.05621							-29.68667	1735.65479	822.24261	169.09219	1548.35535	619.87476	-94.47318	1555.61523	767.95953	100.69774	1486.71667	783.19263				308.93484	1206.26099	543.72845	-218.01126	1209.34399	846.50647	362.29172	939.28455	693.92407	-129.95872	953.29968	987.14191	191.50986	1058.46375	645.77911	-59.56045	1054.53491	864.04071	-43.45042	1073.76514	604.34735	190.52739	569.30310	625.20148	8.97839	617.91309	992.22986	111.82225	71.84541	586.75867	-32.79718	193.38246	711.02374	
288	2.870	106.15229	1724.01282	902.43988							-26.21069	1735.14392	829.52112	175.28404	1548.77441	627.88483	-89.91888	1555.92700	773.83569	104.22404	1485.65137	790.73944				319.67554	1207.37976	555.79169	-215.59882	1209.37524	849.65540	370.32602	940.21265	706.26074	-131.49382	952.22455	990.36206	195.93900	1057.54456	652.00189	-55.77344	1054.35974	870.45569	-37.85901	1074.17725	611.36243	192.67873	568.46600	629.14673	16.04375	619.71570	999.90961	111.69131	72.05802	586.86072	-12.70417	182.69374	733.58923	
289	2.880	109.24265	1723.81348	910.93243							-22.11098	1734.63684	836.46222	181.83069	1548.28235	638.94623	-86.23571	1556.08740	779.90350	109.63409	1485.62000	800.09558				329.56415	1208.21118	568.40674	-212.62196	1209.35950	852.49261	380.73148	942.42456	721.57831	-131.39420	950.93909	994.00250	202.60706	1058.05688	661.69226	-51.81704	1054.43433	876.34430	-31.57029	1074.40356	617.67957	195.08197	569.07666	632.42548	21.30048	620.88733	1006.30627	111.78304	72.10378	587.14984	7.15382	171.78365	756.56427	
290	2.890	112.30701	1723.53699	919.41852							-18.61530	1734.47424	843.51465	188.99255	1547.58215	648.84961	-81.53380	1555.89685	785.66467	113.89246	1485.25452	808.40582				339.03503	1208.80164	581.00641	-210.02325	1209.33105	855.88751	388.95279	943.28223	734.01086	-133.03809	950.23883	996.95123	208.41190	1057.56836	670.68823	-47.74318	1054.18689	883.37115	-25.47987	1073.86267	623.47552	197.67561	569.07599	637.31610	27.17875	620.72845	1012.48743	112.04861	72.63895	587.59473	26.88396	160.64604	780.55023	
291	2.900	115.13584	1723.32910	927.84174							-14.82637	1733.73914	850.57147	194.54280	1547.65430	656.81476	-77.08295	1555.51318	791.70490	117.45309	1484.65515	817.12811				347.86514	1209.37427	594.12598	-206.87750	1209.07300	858.94092	399.60580	944.91040	749.82031	-134.01070	948.97437	1001.39001	214.12157	1057.48767	679.56274	-43.75808	1053.26611	889.07300	-19.32456	1073.45642	629.81531	200.28169	568.89838	640.94977	32.28250	620.33710	1017.96844	112.13279	72.69485	587.80402	45.62122	150.58559	805.08319	
292	2.910	117.96922	1722.72900	936.43890							-11.23291	1732.91760	857.68262	200.40034	1547.27881	666.31610	-72.46093	1555.35791	797.51978	120.97447	1484.33716	825.70813				356.54294	1209.78198	607.32825	-204.39355	1209.04797	862.01416	407.67953	945.68896	762.58960	-134.91444	947.72302	1005.80304	219.56310	1056.96057	688.99841	-40.52386	1052.90723	895.48035	-12.85201	1073.63928	637.43347	203.21490	568.84192	645.18726	37.48322	618.82574	1023.30420	111.91328	73.18619	588.05518	63.83370	139.71320	829.67468	
293	2.920	119.70505	1722.45862	945.14343							-7.81526	1732.06873	864.81079	206.50166	1546.51306	677.47607	-68.61176	1554.67297	803.61426	124.65571	1483.68237	834.06146				364.95984	1210.03723	619.66559	-201.69876	1208.46802	865.83679	416.71710	946.29175	775.63879	-137.10719	946.27795	1008.48376	225.51921	1056.76514	697.42126	-35.96909	1051.91589	901.58093	-7.26160	1073.10620	643.72406	205.93735	568.92090	649.87738	41.47690	616.92316	1025.87170	112.08236	73.41332	588.46021	81.61819	130.76341	853.73267	
294	2.930	122.31161	1721.53613	953.62994							-4.91554	1731.65540	871.87463	211.77071	1546.12805	686.64246	-65.63634	1554.59924	809.94147	128.58975	1483.19031	842.68219				373.09250	1210.22058	632.78680	-199.20186	1208.23926	869.56213	425.22470	947.63879	789.11963	-138.71236	944.52759	1012.20013	230.90591	1055.70447	705.79480	-32.50888	1050.33325	908.58356	-0.26579	1072.51660	651.24463	209.44084	568.81885	655.09674	45.48436	614.42157	1029.49731	111.83241	74.22226	588.93042	100.11427	121.45189	878.74164	
295	2.940	125.19505	1720.84973	962.02118							-1.50085	1730.47986	879.06537	217.49713	1545.64758	697.31628	-61.03778	1553.92200	815.82501	131.56676	1482.61133	851.82379				380.43765	1210.81848	646.16486	-196.65849	1207.35498	872.95135	434.16312	948.14630	802.49896	-139.55618	942.71899	1015.70917	236.45712	1054.92468	716.50397	-29.45806	1050.09143	916.88135	6.15726	1072.48865	658.61096	212.34415	568.51324	659.97504	49.92771	610.95215	1032.67639	111.76859	74.72504	589.22345	118.41589	112.59612	903.23822	
